<svg width="130" height="136" viewBox="0 0 130 136" fill="none" xmlns="http://www.w3.org/2000/svg">
<path d="M36.8486 133.026C29.1277 128.347 24.7809 121.404 21.2378 113.867C18.1136 107.222 17.3314 100.058 16.2276 92.9729C15.5593 88.683 15.0025 84.3765 14.4474 80.0713C14.2237 78.3367 13.3317 77.4308 11.4981 77.0735C8.35474 76.461 6.50076 74.3763 6.46395 71.3432C6.43912 69.2976 6.27557 67.2803 6.07215 65.2492C5.73379 61.871 7.45663 60.119 10.9967 59.9154C13.0888 59.795 15.242 60.2749 17.4433 59.421C17.4705 57.1502 15.6293 55.7568 14.6966 54.038C11.3099 47.7977 10.5698 41.0385 9.95089 34.2353C9.45437 28.7773 7.75982 23.8596 3.56967 19.8942C2.3931 18.7807 1.41979 17.4607 0.866016 15.9032C0.385911 14.5529 0.734195 13.6069 2.18858 13.207C14.7589 9.75044 27.0756 10.034 39.0144 15.5684C40.0139 16.0318 40.9347 16.6498 41.9327 17.1167C44.1842 18.1701 45.124 17.4964 45.131 15.0515C45.1348 13.7521 43.6696 12.0623 45.5425 11.2169C47.1875 10.4743 49.049 11.0868 50.6001 11.9451C59.3416 16.7821 66.5664 22.8735 69.4174 32.6425C70.7737 37.29 70.8398 41.897 69.5424 46.5358C68.3255 50.8869 66.859 55.1635 65.1184 59.3583C68.8331 60.4361 69.4369 60.0194 71.0302 57.0263C75.4027 48.8121 79.9128 40.6641 84.425 32.5184C89.4555 23.4373 94.5469 14.3869 99.6145 5.32451C101.581 1.80691 105.255 -0.056924 109.341 0.75486C112.039 1.291 114.721 2.10688 117.257 3.14118C120.673 4.5348 122.194 7.93472 121.135 11.8358C118.81 20.3938 116.321 28.911 113.888 37.4417C112.133 43.5927 110.341 49.7342 108.608 55.8909C108.276 57.0683 108.142 58.2964 107.931 59.423C109.119 60.2271 110.258 60.0059 111.346 60.003C115.524 59.9918 119.715 60.1387 123.875 59.8691C128.077 59.5969 129.703 61.5558 129.78 65.7824C129.827 68.3174 129.445 70.9722 128.62 73.3739C127.945 75.3396 126.271 77.0033 123.772 77.1614C122.219 77.2597 121.83 78.0119 121.615 79.3558C120.163 88.4398 119.149 97.6304 116.944 106.549C114.93 114.692 110.667 122.092 104.823 128.45C101.112 132.487 96.3488 134.666 90.5967 134.589C77.6059 134.414 64.6475 135.518 51.6669 135.535C46.7068 135.542 41.5983 135.624 36.8486 133.026ZM106.567 119.558C108.718 116.232 110.639 112.81 111.865 109.048C114.58 100.718 115.059 92.0005 116.73 83.4897C117.994 77.0499 117.693 76.9959 110.815 77.1239C110.723 77.1256 110.629 77.1281 110.537 77.122C109.135 77.029 107.407 77.0515 107.398 75.2686C107.39 73.5551 109.05 73.3284 110.484 73.307C114.007 73.2544 117.532 73.2497 121.055 73.2688C123.084 73.2799 124.216 72.5269 124.82 70.5229C126.653 64.4318 126.379 63.9606 119.787 63.9927C101.792 64.0804 83.7985 63.9607 65.8013 64.235C49.2007 64.4879 32.5893 64.0729 15.9824 63.9841C9.43171 63.9491 10.1837 63.3249 10.1873 69.4885C10.1893 72.8498 10.6258 73.2688 14.229 73.3089C18.9608 73.3616 23.6936 73.3224 28.4255 73.3678C29.7901 73.3809 31.5752 73.2376 31.4734 75.1708C31.3849 76.852 29.7696 77.1021 28.3192 77.081C26.2826 77.0514 24.2381 76.7446 22.2141 76.8516C18.5479 77.0454 18.2173 77.6148 18.6696 81.1374C19.301 86.0549 20.1054 90.9538 20.7264 95.8652C21.9264 105.356 24.5437 114.263 30.6125 122.029C33.9743 126.331 37.2948 130.691 43.7597 130.692C59.7176 130.695 75.6755 130.707 91.6334 130.689C94.7044 130.686 97.3623 129.713 99.7363 127.728C102.445 125.463 104.243 122.57 106.567 119.558ZM46.2245 27.3753C42.7616 22.8032 38.4482 19.2171 32.6578 17.7625C28.7291 16.7755 24.6805 16.1141 20.6419 15.6674C16.4162 15.1999 12.2144 15.5631 8.06022 17.6506C12.4533 23.3337 13.5825 29.7098 14.2403 36.3125C15.0301 44.2398 17.9672 51.4257 23.4416 57.5767C24.7863 59.0875 26.2216 60.0103 28.4016 59.9794C33.5008 59.9073 38.6026 59.9602 43.7026 60.023C45.4388 60.0444 46.3184 59.5015 46.1245 57.6996C45.5275 52.1505 44.0158 46.9293 40.3056 42.4784C39.6627 41.7072 39.0743 40.9267 38.7616 39.9804C38.5453 39.3258 38.6839 38.7476 39.2325 38.2966C39.8543 37.7855 40.5847 37.6044 41.2683 38.092C42.0027 38.6159 42.6914 39.2176 43.3154 39.8604C47.4334 44.1036 48.6297 49.558 50.1195 55.0572C51.6158 54.0915 51.6745 52.644 51.6925 51.2733C51.8009 43.0429 51.0554 34.9751 46.2245 27.3753ZM114.937 18.9695C115.4 17.2609 115.872 15.5547 116.324 13.8434C117.999 7.49603 118.094 7.63419 112.554 5.76368C112.295 5.67622 112.066 5.50957 111.817 5.39223C107.168 3.20371 104.188 4.3108 101.868 8.73155C97.9361 16.2216 93.8887 23.6578 89.7875 31.0648C85.0711 39.583 80.2283 48.0373 75.4744 56.5367C74.2506 58.7248 74.7695 59.7798 77.3506 59.8316C85.4126 59.9932 93.4783 59.9841 101.542 60.0497C102.979 60.0614 103.638 59.3965 104.005 58.0625C107.562 45.1595 111.182 32.2723 114.937 18.9695ZM64.1605 50.8511C64.4232 49.9117 64.6223 48.951 64.9584 48.0362C68.5004 38.3934 64.8716 27.743 57.514 21.4089C55.8065 19.939 54.2326 18.2464 51.9837 17.4399C50.9711 17.0767 49.7546 16.751 49.4316 18.0381C48.884 20.2208 48.2153 22.3304 49.5845 24.6946C52.4661 29.67 54.4516 34.952 54.9374 40.7559C55.3902 46.1656 55.2204 51.5631 55.3554 56.9653C55.3837 58.1001 54.7911 59.6939 56.7179 59.9688C58.4996 60.223 60.3008 60.1979 61.1389 58.1574C62.0864 55.8507 63.0635 53.5552 64.1605 50.8511Z" fill="white"/>
<path d="M76.9746 85.9381C76.7737 88.3541 77.6476 89.0082 80.0576 88.9C90.3207 88.4391 88.5964 88.6598 88.7567 96.754C88.8076 99.3235 88.7226 101.895 88.7532 104.465C88.7748 106.282 87.8846 107.05 86.0119 106.928C83.609 106.772 81.1997 106.701 78.7986 106.525C76.9188 106.388 76.3003 107.205 76.5072 108.9C76.7209 110.651 76.8289 112.413 76.9944 114.169C77.2017 116.369 76.1338 117.597 73.852 117.637C69.4942 117.712 65.1341 117.659 60.7752 117.69C58.8898 117.703 57.9468 116.974 57.682 115.075C57.382 112.924 57.8071 110.831 57.812 108.712C57.8157 107.102 57.2131 106.441 55.5131 106.583C53.298 106.768 51.0729 106.843 48.8534 106.983C46.9921 107.101 46.131 106.353 46.1512 104.506C46.1969 100.342 46.176 96.1757 46.1058 92.0113C46.0587 89.2185 48.1556 88.909 50.2234 88.783C51.6833 88.6941 53.1683 89.0638 54.647 89.1562C56.8614 89.2947 58.1353 88.2982 57.703 86.1534C57.3406 84.3549 57.7078 82.6384 57.7386 80.884C57.7744 78.8446 58.8791 77.9224 60.895 77.4993C65.3428 76.5657 69.76 77.2828 74.1818 77.5524C76.0591 77.6669 76.8954 78.9632 76.9715 80.6513C77.0472 82.3318 76.9916 84.0177 76.9746 85.9381ZM61.9839 86.4479C61.9897 87.7772 61.9572 89.1079 62.01 90.4355C62.0886 92.4102 61.1428 93.1566 59.108 92.93C57.3624 92.7355 55.591 92.7585 53.8419 92.5852C51.5247 92.3557 50.3385 93.1826 50.3626 95.5117C50.4508 104.032 49.1852 102.489 57.2797 102.513C61.8731 102.527 61.9152 102.483 61.9452 106.799C62.002 114.991 61.0799 113.429 69.4959 113.818C69.6808 113.826 69.8667 113.819 70.052 113.815C71.8381 113.78 72.8116 112.983 72.801 111.202C72.79 109.341 72.9577 107.469 72.7986 105.622C72.5774 103.054 73.8436 102.289 76.272 102.538C78.0221 102.717 79.7825 102.802 81.5356 102.957C83.1541 103.1 84.0015 102.48 83.9778 100.868C83.9478 98.8303 83.9266 96.7918 83.9463 94.7539C83.9604 93.3 83.211 92.65 81.7389 92.6439C79.9755 92.6365 78.2334 92.7613 76.4819 93.0228C73.7399 93.4322 72.9087 92.7408 72.8147 90.1445C72.7508 88.3818 72.3898 86.6406 72.6937 84.8469C73.0841 82.5428 72.041 81.2839 69.4593 81.4085C68.5349 81.4531 67.6051 81.3887 66.6778 81.3823C61.9771 81.3497 61.9771 81.3506 61.9839 86.4479Z" fill="white"/>
</svg>
