<svg width="265" height="584" viewBox="0 0 265 584" fill="none" xmlns="http://www.w3.org/2000/svg">
<path d="M66.4535 578.6H64.6335L57.3135 567.5V578.6H55.4935V564.64H57.3135L64.6335 575.72V564.64H66.4535V578.6ZM74.436 578.78C73.4093 578.78 72.476 578.546 71.636 578.08C70.8093 577.613 70.156 576.953 69.676 576.1C69.2093 575.233 68.976 574.233 68.976 573.1C68.976 571.98 69.216 570.993 69.696 570.14C70.1893 569.273 70.856 568.613 71.696 568.16C72.536 567.693 73.476 567.46 74.516 567.46C75.556 567.46 76.496 567.693 77.336 568.16C78.176 568.613 78.836 569.266 79.316 570.12C79.8093 570.973 80.056 571.966 80.056 573.1C80.056 574.233 79.8027 575.233 79.296 576.1C78.8027 576.953 78.1293 577.613 77.276 578.08C76.4227 578.546 75.476 578.78 74.436 578.78ZM74.436 577.18C75.0893 577.18 75.7027 577.026 76.276 576.72C76.8493 576.413 77.3093 575.953 77.656 575.34C78.016 574.726 78.196 573.98 78.196 573.1C78.196 572.22 78.0227 571.473 77.676 570.86C77.3293 570.246 76.876 569.793 76.316 569.5C75.756 569.193 75.1493 569.04 74.496 569.04C73.8293 569.04 73.216 569.193 72.656 569.5C72.1093 569.793 71.6693 570.246 71.336 570.86C71.0027 571.473 70.836 572.22 70.836 573.1C70.836 573.993 70.996 574.746 71.316 575.36C71.6493 575.973 72.0893 576.433 72.636 576.74C73.1827 577.033 73.7827 577.18 74.436 577.18ZM89.801 564.66V578.6H87.981V564.66H89.801ZM95.2229 569.14V575.6C95.2229 576.133 95.3362 576.513 95.5629 576.74C95.7896 576.953 96.1829 577.06 96.7429 577.06H98.0829V578.6H96.4429C95.4296 578.6 94.6696 578.366 94.1629 577.9C93.6562 577.433 93.4029 576.666 93.4029 575.6V569.14H91.9829V567.64H93.4029V564.88H95.2229V567.64H98.0829V569.14H95.2229ZM110.388 572.7C110.388 573.046 110.368 573.413 110.328 573.8H101.568C101.635 574.88 102.001 575.726 102.668 576.34C103.348 576.94 104.168 577.24 105.128 577.24C105.915 577.24 106.568 577.06 107.088 576.7C107.621 576.326 107.995 575.833 108.208 575.22H110.168C109.875 576.273 109.288 577.133 108.408 577.8C107.528 578.453 106.435 578.78 105.128 578.78C104.088 578.78 103.155 578.546 102.328 578.08C101.515 577.613 100.875 576.953 100.408 576.1C99.9414 575.233 99.708 574.233 99.708 573.1C99.708 571.966 99.9347 570.973 100.388 570.12C100.841 569.266 101.475 568.613 102.288 568.16C103.115 567.693 104.061 567.46 105.128 567.46C106.168 567.46 107.088 567.686 107.888 568.14C108.688 568.593 109.301 569.22 109.728 570.02C110.168 570.806 110.388 571.7 110.388 572.7ZM108.508 572.32C108.508 571.626 108.355 571.033 108.048 570.54C107.741 570.033 107.321 569.653 106.788 569.4C106.268 569.133 105.688 569 105.048 569C104.128 569 103.341 569.293 102.688 569.88C102.048 570.466 101.681 571.28 101.588 572.32H108.508ZM126.07 567.44C126.924 567.44 127.684 567.62 128.35 567.98C129.017 568.326 129.544 568.853 129.93 569.56C130.317 570.266 130.51 571.126 130.51 572.14V578.6H128.71V572.4C128.71 571.306 128.437 570.473 127.89 569.9C127.357 569.313 126.63 569.02 125.71 569.02C124.764 569.02 124.01 569.326 123.45 569.94C122.89 570.54 122.61 571.413 122.61 572.56V578.6H120.81V572.4C120.81 571.306 120.537 570.473 119.99 569.9C119.457 569.313 118.73 569.02 117.81 569.02C116.864 569.02 116.11 569.326 115.55 569.94C114.99 570.54 114.71 571.413 114.71 572.56V578.6H112.89V567.64H114.71V569.22C115.07 568.646 115.55 568.206 116.15 567.9C116.764 567.593 117.437 567.44 118.17 567.44C119.09 567.44 119.904 567.646 120.61 568.06C121.317 568.473 121.844 569.08 122.19 569.88C122.497 569.106 123.004 568.506 123.71 568.08C124.417 567.653 125.204 567.44 126.07 567.44ZM137.476 578.78C136.636 578.78 135.883 578.64 135.216 578.36C134.549 578.066 134.023 577.666 133.636 577.16C133.249 576.64 133.036 576.046 132.996 575.38H134.876C134.929 575.926 135.183 576.373 135.636 576.72C136.103 577.066 136.709 577.24 137.456 577.24C138.149 577.24 138.696 577.086 139.096 576.78C139.496 576.473 139.696 576.086 139.696 575.62C139.696 575.14 139.483 574.786 139.056 574.56C138.629 574.32 137.969 574.086 137.076 573.86C136.263 573.646 135.596 573.433 135.076 573.22C134.569 572.993 134.129 572.666 133.756 572.24C133.396 571.8 133.216 571.226 133.216 570.52C133.216 569.96 133.383 569.446 133.716 568.98C134.049 568.513 134.523 568.146 135.136 567.88C135.749 567.6 136.449 567.46 137.236 567.46C138.449 567.46 139.429 567.766 140.176 568.38C140.923 568.993 141.323 569.833 141.376 570.9H139.556C139.516 570.326 139.283 569.866 138.856 569.52C138.443 569.173 137.883 569 137.176 569C136.523 569 136.003 569.14 135.616 569.42C135.229 569.7 135.036 570.066 135.036 570.52C135.036 570.88 135.149 571.18 135.376 571.42C135.616 571.646 135.909 571.833 136.256 571.98C136.616 572.113 137.109 572.266 137.736 572.44C138.523 572.653 139.163 572.866 139.656 573.08C140.149 573.28 140.569 573.586 140.916 574C141.276 574.413 141.463 574.953 141.476 575.62C141.476 576.22 141.309 576.76 140.976 577.24C140.643 577.72 140.169 578.1 139.556 578.38C138.956 578.646 138.263 578.78 137.476 578.78ZM157.457 564.66V566.14H151.397V570.84H156.317V572.32H151.397V578.6H149.577V564.66H157.457ZM164.535 578.78C163.509 578.78 162.575 578.546 161.735 578.08C160.909 577.613 160.255 576.953 159.775 576.1C159.309 575.233 159.075 574.233 159.075 573.1C159.075 571.98 159.315 570.993 159.795 570.14C160.289 569.273 160.955 568.613 161.795 568.16C162.635 567.693 163.575 567.46 164.615 567.46C165.655 567.46 166.595 567.693 167.435 568.16C168.275 568.613 168.935 569.266 169.415 570.12C169.909 570.973 170.155 571.966 170.155 573.1C170.155 574.233 169.902 575.233 169.395 576.1C168.902 576.953 168.229 577.613 167.375 578.08C166.522 578.546 165.575 578.78 164.535 578.78ZM164.535 577.18C165.189 577.18 165.802 577.026 166.375 576.72C166.949 576.413 167.409 575.953 167.755 575.34C168.115 574.726 168.295 573.98 168.295 573.1C168.295 572.22 168.122 571.473 167.775 570.86C167.429 570.246 166.975 569.793 166.415 569.5C165.855 569.193 165.249 569.04 164.595 569.04C163.929 569.04 163.315 569.193 162.755 569.5C162.209 569.793 161.769 570.246 161.435 570.86C161.102 571.473 160.935 572.22 160.935 573.1C160.935 573.993 161.095 574.746 161.415 575.36C161.749 575.973 162.189 576.433 162.735 576.74C163.282 577.033 163.882 577.18 164.535 577.18ZM182.368 567.64V578.6H180.548V576.98C180.202 577.54 179.715 577.98 179.088 578.3C178.475 578.606 177.795 578.76 177.048 578.76C176.195 578.76 175.428 578.586 174.748 578.24C174.068 577.88 173.528 577.346 173.128 576.64C172.742 575.933 172.548 575.073 172.548 574.06V567.64H174.348V573.82C174.348 574.9 174.622 575.733 175.168 576.32C175.715 576.893 176.462 577.18 177.408 577.18C178.382 577.18 179.148 576.88 179.708 576.28C180.268 575.68 180.548 574.806 180.548 573.66V567.64H182.368ZM190.881 567.44C192.214 567.44 193.294 567.846 194.121 568.66C194.948 569.46 195.361 570.62 195.361 572.14V578.6H193.561V572.4C193.561 571.306 193.288 570.473 192.741 569.9C192.194 569.313 191.448 569.02 190.501 569.02C189.541 569.02 188.774 569.32 188.201 569.92C187.641 570.52 187.361 571.393 187.361 572.54V578.6H185.541V567.64H187.361V569.2C187.721 568.64 188.208 568.206 188.821 567.9C189.448 567.593 190.134 567.44 190.881 567.44ZM197.754 573.08C197.754 571.96 197.981 570.98 198.434 570.14C198.887 569.286 199.507 568.626 200.294 568.16C201.094 567.693 201.987 567.46 202.974 567.46C203.827 567.46 204.621 567.66 205.354 568.06C206.087 568.446 206.647 568.96 207.034 569.6V563.8H208.874V578.6H207.034V576.54C206.674 577.193 206.141 577.733 205.434 578.16C204.727 578.573 203.901 578.78 202.954 578.78C201.981 578.78 201.094 578.54 200.294 578.06C199.507 577.58 198.887 576.906 198.434 576.04C197.981 575.173 197.754 574.186 197.754 573.08ZM207.034 573.1C207.034 572.273 206.867 571.553 206.534 570.94C206.201 570.326 205.747 569.86 205.174 569.54C204.614 569.206 203.994 569.04 203.314 569.04C202.634 569.04 202.014 569.2 201.454 569.52C200.894 569.84 200.447 570.306 200.114 570.92C199.781 571.533 199.614 572.253 199.614 573.08C199.614 573.92 199.781 574.653 200.114 575.28C200.447 575.893 200.894 576.366 201.454 576.7C202.014 577.02 202.634 577.18 203.314 577.18C203.994 577.18 204.614 577.02 205.174 576.7C205.747 576.366 206.201 575.893 206.534 575.28C206.867 574.653 207.034 573.926 207.034 573.1Z" fill="#001646"/>
<g clip-path="url(#clip0_1687_8247)">
<path d="M122.013 228.764C122.013 228.764 99.9605 333.3 98.0592 367.976C96.1579 402.651 105.2 489.79 105.2 489.79L133.376 494.286L138.75 383.081L151.102 298.31C151.102 298.31 164.037 367.241 169.606 383.38C175.175 399.519 201.749 446.318 223.696 483.706L242.56 469.875C242.56 469.875 207.303 368.965 201.284 349.259C195.266 329.554 199.338 246.012 180.774 222.29L122.013 228.764Z" fill="#236D7D"/>
<path opacity="0.4" d="M122.013 228.764C122.013 228.764 99.9605 333.3 98.0592 367.976C96.1579 402.651 105.2 489.79 105.2 489.79L133.376 494.286L138.75 383.081L151.102 298.31C151.102 298.31 164.037 367.241 169.606 383.38C175.175 399.519 201.749 446.318 223.696 483.706L242.56 469.875C242.56 469.875 207.303 368.965 201.284 349.259C195.266 329.554 199.338 246.012 180.774 222.29L122.013 228.764Z" fill="white"/>
<path d="M127.253 518.726C127.118 519.566 112.506 516.389 112.506 516.389L111.518 501.943L111.129 496.279L126.1 494.96C126.1 494.96 126.354 499.276 126.624 504.221C126.923 510.694 127.417 518.232 127.253 518.726Z" fill="#B55B52"/>
<path opacity="0.2" d="M126.564 504.221L111.518 501.943L111.129 496.279L126.1 494.96C126.1 494.96 126.295 499.276 126.564 504.221Z" fill="black"/>
<path d="M101.802 521.469L101.203 520.645C101.023 520.39 96.7118 514.351 97.3406 511.384C97.3992 511.095 97.5208 510.823 97.6968 510.588C97.8729 510.352 98.0989 510.158 98.3586 510.02C98.571 509.892 98.8143 509.824 99.0623 509.824C99.3103 509.824 99.5535 509.892 99.7659 510.02C101.907 511.324 101.832 519.536 101.817 520.51L101.802 521.469ZM99.1072 510.5C98.955 510.505 98.8062 510.546 98.673 510.62C98.5023 510.715 98.3539 510.846 98.2378 511.004C98.1216 511.162 98.0403 511.342 97.9993 511.534C97.5352 513.572 99.9605 517.528 101.143 519.356C101.143 516.464 100.754 511.399 99.4216 510.59C99.3271 510.531 99.2183 510.5 99.1072 510.5Z" fill="#236D7D"/>
<path d="M100.29 521.558L99.4216 521.199C98.4934 520.824 90.3491 517.422 89.8401 514.5C89.7935 514.203 89.8256 513.898 89.9333 513.617C90.041 513.335 90.2205 513.087 90.4539 512.897C90.6995 512.668 90.996 512.501 91.3188 512.41C91.6416 512.319 91.9816 512.306 92.3104 512.372C95.604 512.942 99.6761 520.404 99.7959 520.719L100.29 521.558ZM91.8912 513.002C91.5261 513.002 91.176 513.148 90.918 513.406C90.7658 513.518 90.6474 513.669 90.576 513.844C90.5047 514.018 90.4831 514.209 90.5138 514.395C90.8432 516.314 95.9334 518.891 98.7479 520.18C97.5802 518.187 94.556 513.451 92.1906 513.032L91.8912 513.002Z" fill="#236D7D"/>
<path d="M126.774 517.917L111.653 515.535C110.713 515.387 109.752 515.595 108.958 516.119C105.452 518.488 101.507 520.129 97.3556 520.944C90.8881 521.858 85.1392 520.585 84.6003 522.443C84.2945 523.65 84.4028 524.926 84.9078 526.064C85.4127 527.203 86.285 528.139 87.3849 528.722C89.5107 529.831 115.56 533.877 126.549 535.555C127.124 535.642 127.712 535.596 128.267 535.422C128.822 535.248 129.33 534.949 129.753 534.549C130.175 534.149 130.502 533.658 130.706 533.113C130.911 532.568 130.99 531.984 130.936 531.404L129.992 521.364C129.911 520.514 129.551 519.716 128.969 519.092C128.387 518.469 127.615 518.056 126.774 517.917Z" fill="#222221"/>
<path d="M101.488 486.329L103.838 498.811L134.693 501.733L135.607 489.131L101.488 486.329Z" fill="#236D7D"/>
<path d="M252.036 485.519C252.455 486.268 239.041 492.877 239.041 492.877L230.149 483.091L225.493 477.952L230.223 473.456L236.361 467.657C236.361 467.657 236.99 468.376 238.023 469.515L243.473 475.659C247.515 480.244 251.827 485.144 252.036 485.519Z" fill="#B55B52"/>
<path opacity="0.2" d="M243.473 475.674L230.149 483.092L225.493 477.952L230.223 473.456L238.023 469.515L243.473 475.674Z" fill="black"/>
<path d="M234.685 498.856L233.906 498.496C233.622 498.377 227.05 495.365 226.421 492.712C226.363 492.447 226.371 492.172 226.444 491.911C226.518 491.65 226.653 491.41 226.84 491.214C227.04 490.957 227.305 490.757 227.608 490.636C227.91 490.515 228.239 490.477 228.562 490.524C231.226 490.959 233.996 497.358 234.31 498.092L234.685 498.856ZM228.322 491.154C228.141 491.158 227.964 491.204 227.803 491.287C227.642 491.37 227.502 491.488 227.394 491.633C227.275 491.756 227.189 491.907 227.144 492.072C227.1 492.237 227.098 492.411 227.139 492.577C227.499 494.256 231.211 496.413 233.352 497.492C232.319 495.275 230.193 491.498 228.502 491.169L228.322 491.154Z" fill="#236D7D"/>
<path d="M224.834 502.003C223.486 502.144 222.132 501.798 221.016 501.029C220.733 500.744 220.536 500.384 220.449 499.992C220.361 499.599 220.387 499.19 220.522 498.811C220.627 498.347 220.84 497.915 221.145 497.551C221.45 497.186 221.836 496.899 222.274 496.713C226.181 494.945 234.909 499.396 235.284 499.59L236.032 499.98L235.224 500.22C231.84 501.208 228.354 501.806 224.834 502.003ZM224.549 496.968C223.863 496.946 223.179 497.068 222.543 497.328C222.202 497.474 221.9 497.7 221.663 497.987C221.426 498.273 221.261 498.613 221.181 498.976C221.092 499.23 221.073 499.503 221.125 499.766C221.178 500.03 221.301 500.275 221.48 500.475C223.277 502.213 230.598 500.699 234.176 499.74C232.349 498.946 227.723 496.968 224.549 496.968Z" fill="#236D7D"/>
<path d="M251.168 484.98L237.844 492.472C237.011 492.933 236.384 493.694 236.092 494.6C234.815 498.636 232.737 502.372 229.984 505.584C225.493 510.335 220.193 512.912 220.926 514.695C221.431 515.833 222.304 516.766 223.404 517.346C224.504 517.925 225.768 518.116 226.99 517.887C229.34 517.438 252.276 504.401 261.932 498.916C262.438 498.626 262.872 498.224 263.199 497.741C263.527 497.258 263.74 496.706 263.822 496.128C263.905 495.55 263.854 494.96 263.674 494.405C263.495 493.849 263.191 493.342 262.785 492.922L255.824 485.624C255.227 485.019 254.447 484.628 253.605 484.512C252.763 484.395 251.907 484.56 251.168 484.98Z" fill="#222221"/>
<path d="M212.617 477.278L222.199 485.594L248.204 468.721L241.092 458.276L212.617 477.278Z" fill="#236D7D"/>
<path d="M153.287 98.2427C154.111 97.7782 171.253 96.9989 187.721 100.461C204.189 103.922 174.846 124.197 174.846 124.197L165.653 161.031L148.811 161.18L146.775 108.882L153.287 98.2427Z" fill="#EBEBEB"/>
<path d="M187.706 100.505L151.985 156.925L155.937 97.7632C155.937 97.7632 142.957 98.0929 138.93 99.2617C134.903 100.431 131.445 109.841 128.555 122.728C125.666 135.616 121.279 166.515 121.279 166.515L100.754 338.844C100.754 338.844 170.923 353.83 203.979 342.186C203.979 342.186 191.553 187.404 193.604 177.844C195.655 168.283 202.287 133.308 202.287 133.308C202.287 133.308 211.48 115.85 207.482 110.71C203.485 105.57 187.706 100.505 187.706 100.505Z" fill="#236D7D"/>
<path d="M145.592 209.073L150.697 345.828" stroke="white" stroke-width="0.75" stroke-linecap="round" stroke-linejoin="round"/>
<path d="M141.255 102.197L17.418 144.443L48.6076 236.043L172.445 193.797L141.255 102.197Z" fill="#236D7D"/>
<path d="M141.251 102.199L48.595 236.046L31.1986 228.164L0.0139771 136.56L123.854 94.3169L141.251 102.199Z" fill="#236D7D"/>
<path opacity="0.7" d="M141.251 102.199L17.4103 144.457L48.595 236.046L31.1986 228.164L0.0139771 136.56L123.854 94.3169L141.251 102.199Z" fill="white"/>
<mask id="mask0_1687_8247" style="mask-type:luminance" maskUnits="userSpaceOnUse" x="0" y="94" width="142" height="143">
<path d="M141.251 102.199L17.4103 144.442L48.595 236.046L31.1986 228.149L0.0139771 136.56L123.854 94.3169L141.251 102.199Z" fill="white"/>
</mask>
<g mask="url(#mask0_1687_8247)">
<path d="M28.9829 147.709L-15.1367 132.589L172.63 57.064L157.419 92.0093L129.064 120.526L30.3902 147.709" fill="#0F343D"/>
</g>
<path opacity="0.46" d="M141.255 102.197L17.418 144.443L48.6076 236.043L172.445 193.797L141.255 102.197Z" fill="white"/>
<path d="M114.761 196.223C129.69 183.997 131.891 161.971 119.676 147.027C107.46 132.083 85.4553 129.881 70.5257 142.107C55.5961 154.334 53.3956 176.36 65.6107 191.304C77.8258 206.247 99.831 208.45 114.761 196.223Z" fill="#FAFAFA"/>
<path d="M113.629 157.045L99.3766 161.705L94.8105 147.709L83.7918 151.32L88.3729 165.317L72.7133 170.456L76.2764 181.336L91.936 176.211L96.4723 190.072L107.476 186.461L102.94 172.599L117.192 167.924L113.629 157.045Z" fill="#236D7D"/>
<path d="M155.862 25.0255V3.22207C155.862 3.22207 179.711 -7.52228 202.512 14.416L192.032 35.575L155.862 25.0255Z" fill="#236D7D"/>
<path d="M178.768 6.41451L176.065 5.88037L174.433 14.1572L177.135 14.6913L178.768 6.41451Z" fill="white"/>
<path d="M172.765 8.12212L172.232 10.8271L180.501 12.4615L181.034 9.75647L172.765 8.12212Z" fill="white"/>
<path d="M190.296 65.2754C185.939 71.5541 181.942 70.685 181.942 70.685C180.632 73.0692 178.925 75.2127 176.897 77.0237C176.178 96.6093 181.942 101.899 181.942 101.899C175.953 111.145 168.558 110.89 161.072 108.193C153.587 105.496 153.197 99.6213 153.197 99.6213C159.964 96.2946 160.054 91.0798 159.081 87.5133C158.694 86.1329 158.119 84.812 157.374 83.5872C144.664 80.0957 140.996 67.8978 141.864 56.3892C142.402 49.4089 144.113 42.5694 146.925 36.1592L154.41 24.8154L183.678 30.8095L185.25 46.3341L179.262 57.8427C189.817 50.0354 194.697 58.9216 190.296 65.2754Z" fill="#B55B52"/>
<path d="M161.746 63.4475C162.457 63.4436 163.168 63.4937 163.872 63.5973C164.008 63.6263 164.128 63.7056 164.209 63.8195C164.289 63.9334 164.324 64.0734 164.306 64.2117C164.277 64.3511 164.195 64.474 164.078 64.5549C163.961 64.6358 163.818 64.6685 163.677 64.6463C163.677 64.6463 156.192 63.3276 152.988 68.8721C152.918 68.9933 152.804 69.0819 152.669 69.1185C152.534 69.155 152.39 69.1365 152.269 69.0669C152.148 68.9974 152.06 68.8825 152.023 68.7476C151.987 68.6127 152.005 68.4688 152.075 68.3476C154.485 64.1218 159.051 63.4475 161.746 63.4475Z" fill="#263238"/>
<path d="M153.811 58.2773C154.126 58.2773 155.398 48.7168 155.398 48.7168L148.601 56.8987C149.302 57.52 150.138 57.9683 151.043 58.2078C151.947 58.4472 152.896 58.471 153.811 58.2773Z" fill="#A02724"/>
<path d="M163.752 53.7519C163.7 54.1007 163.515 54.4157 163.236 54.6308C162.957 54.846 162.605 54.9445 162.255 54.9058C161.989 54.8735 161.74 54.7628 161.537 54.5879C161.335 54.413 161.189 54.1818 161.118 53.9236C161.047 53.6654 161.055 53.392 161.14 53.1382C161.225 52.8844 161.383 52.6617 161.595 52.4983C161.807 52.335 162.063 52.2385 162.33 52.2211C162.597 52.2037 162.863 52.2662 163.094 52.4006C163.325 52.5351 163.511 52.7353 163.629 52.976C163.746 53.2166 163.789 53.4867 163.752 53.7519Z" fill="#263238"/>
<path d="M148.811 54.4112C148.779 54.6769 148.668 54.927 148.493 55.1297C148.319 55.3324 148.088 55.4784 147.83 55.5492C147.572 55.62 147.299 55.6124 147.045 55.5273C146.791 55.4422 146.569 55.2835 146.406 55.0714C146.243 54.8593 146.146 54.6034 146.129 54.3362C146.111 54.0691 146.174 53.8028 146.308 53.5713C146.442 53.3398 146.643 53.1536 146.883 53.0363C147.123 52.919 147.393 52.8759 147.658 52.9126C147.832 52.9348 148 52.9912 148.153 53.0786C148.305 53.1661 148.439 53.2827 148.546 53.422C148.653 53.5613 148.731 53.7203 148.777 53.8901C148.822 54.0598 148.834 54.2369 148.811 54.4112Z" fill="#263238"/>
<path d="M166.806 52.4032C166.671 52.4046 166.539 52.3671 166.425 52.2954C166.311 52.2237 166.22 52.1207 166.162 51.9986C164.381 48.2074 161.866 48.7019 161.761 48.7169C161.667 48.75 161.568 48.763 161.469 48.755C161.37 48.7471 161.274 48.7183 161.187 48.6705C161.101 48.6228 161.025 48.5572 160.965 48.4781C160.905 48.399 160.863 48.3081 160.84 48.2114C160.818 48.1147 160.816 48.0144 160.835 47.917C160.855 47.8196 160.894 47.7274 160.951 47.6464C161.009 47.5653 161.082 47.4973 161.168 47.4468C161.253 47.3963 161.348 47.3644 161.447 47.3532C161.596 47.3532 165.144 46.514 167.435 51.3992C167.513 51.5686 167.522 51.7617 167.461 51.9379C167.399 52.114 167.272 52.2594 167.106 52.3433C167.011 52.3832 166.909 52.4036 166.806 52.4032Z" fill="#263238"/>
<path d="M144.2 49.8408C144.016 49.8414 143.84 49.7717 143.706 49.646C143.576 49.5142 143.503 49.3365 143.503 49.1515C143.503 48.9664 143.576 48.7887 143.706 48.657C143.871 48.4771 147.883 44.3562 152.958 46.3942C153.118 46.472 153.243 46.6079 153.307 46.7743C153.372 46.9407 153.37 47.1253 153.304 47.2908C153.237 47.4563 153.11 47.5904 152.949 47.6659C152.788 47.7415 152.603 47.7529 152.434 47.6979C148.227 46.0196 144.754 49.586 144.724 49.631C144.655 49.6988 144.573 49.7523 144.483 49.7883C144.393 49.8243 144.297 49.8422 144.2 49.8408Z" fill="#263238"/>
<path opacity="0.2" d="M163.902 82.793C162.731 84.7232 161.087 86.3221 159.126 87.4384C158.738 86.0579 158.164 84.737 157.419 83.5122C159.607 83.7235 161.814 83.4785 163.902 82.793Z" fill="black"/>
<path d="M182.286 32.1282C182.286 32.1282 157.03 38.8865 146.97 35.305C136.909 31.7236 140.427 19.3459 141.79 18.177C143.646 16.5886 147.688 23.1521 147.688 23.1521C147.688 23.1521 144.38 16.124 146.97 14.5806C149.56 13.0371 149.964 23.5717 159.395 22.4628C168.827 21.3539 194.967 14.2359 196.509 30.6896C197.434 40.547 195.842 50.4781 191.883 59.551C191.883 59.551 190.49 50.5599 179.367 57.7078C179.367 57.7078 175.669 55.0705 179.367 51.4441C185.804 45.1653 183.559 36.9085 182.286 32.1282Z" fill="#263238"/>
<path d="M179.606 30.8098C179.606 30.8098 175.22 45.1655 183.289 44.4762C191.359 43.7869 186.403 28.8018 186.403 28.8018L179.606 30.8098Z" fill="#263238"/>
<path d="M158.392 23.3169C158.392 23.3169 153.123 19.4358 154.47 16.6186C155.817 13.8014 157.913 20.6046 168.408 19.3608C178.903 18.1171 191.359 17.173 193.664 24.1411C195.97 31.1092 172.705 25.8045 172.705 25.8045L158.362 28.8914L158.392 23.3169Z" fill="#263238"/>
<path d="M156.566 194.837L146.431 191.975C146.431 191.975 134.454 191.241 133.451 195.811C132.448 200.382 131.954 208.264 136.714 208.893C141.475 209.523 156.296 208.594 156.296 208.594L156.566 194.837Z" fill="#B55B52"/>
<path d="M191.149 125.216L207.482 110.621C207.482 110.621 227.708 155.576 228.846 172.854C229.984 190.132 216.645 197.894 205.342 200.801C194.038 203.708 156.581 211.456 156.581 211.456L154.56 190.596C154.56 190.596 194.458 183.778 209.818 176.72C209.758 176.765 195.94 136.53 191.149 125.216Z" fill="#236D7D"/>
<path opacity="0.1" d="M156.581 211.515L194.338 203.438L194.458 209.118L156.581 211.515Z" fill="black"/>
<path d="M161.102 108.118L165.399 119.477C172.225 114.446 178.507 108.716 184.143 102.379L177.915 91.9941C177.915 91.9941 172.211 103.353 161.102 108.118Z" fill="#FAFAFA"/>
<path d="M157.958 95.6953C158.082 100.017 159.156 104.258 161.102 108.118L156.416 118.608C154.044 116.203 152.236 113.3 151.122 110.11C150.009 106.919 149.618 103.521 149.979 100.161L157.958 95.6953Z" fill="#FAFAFA"/>
</g>
<defs>
<clipPath id="clip0_1687_8247">
<rect width="264" height="535" fill="white" transform="translate(0.181641 0.599609)"/>
</clipPath>
</defs>
</svg>
