<svg width="265" height="536" viewBox="0 0 265 536" fill="none" xmlns="http://www.w3.org/2000/svg">
<g clip-path="url(#clip0_1685_8198)">
<path d="M122.013 229.132C122.013 229.132 99.9605 333.668 98.0592 368.344C96.1579 403.02 105.2 490.158 105.2 490.158L133.376 494.654L138.75 383.449L151.102 298.678C151.102 298.678 164.037 367.61 169.606 383.749C175.175 399.888 201.749 446.686 223.696 484.074L242.56 470.243C242.56 470.243 207.303 369.333 201.284 349.627C195.266 329.922 199.338 246.38 180.774 222.658L122.013 229.132Z" fill="#236D7D"/>
<path opacity="0.4" d="M122.013 229.132C122.013 229.132 99.9605 333.668 98.0592 368.344C96.1579 403.02 105.2 490.158 105.2 490.158L133.376 494.654L138.75 383.449L151.102 298.678C151.102 298.678 164.037 367.61 169.606 383.749C175.175 399.888 201.749 446.686 223.696 484.074L242.56 470.243C242.56 470.243 207.303 369.333 201.284 349.627C195.266 329.922 199.338 246.38 180.774 222.658L122.013 229.132Z" fill="white"/>
<path d="M127.253 519.095C127.118 519.934 112.506 516.757 112.506 516.757L111.518 502.311L111.129 496.647L126.1 495.328C126.1 495.328 126.354 499.644 126.624 504.589C126.923 511.063 127.417 518.6 127.253 519.095Z" fill="#B55B52"/>
<path opacity="0.2" d="M126.564 504.589L111.518 502.311L111.129 496.647L126.1 495.328C126.1 495.328 126.295 499.644 126.564 504.589Z" fill="#212121"/>
<path d="M101.802 521.837L101.203 521.013C101.023 520.758 96.7118 514.719 97.3406 511.752C97.3992 511.464 97.5208 511.192 97.6968 510.956C97.8729 510.72 98.0989 510.526 98.3586 510.388C98.571 510.26 98.8143 510.192 99.0623 510.192C99.3103 510.192 99.5535 510.26 99.7659 510.388C101.907 511.692 101.832 519.904 101.817 520.878L101.802 521.837ZM99.1072 510.868C98.955 510.873 98.8062 510.914 98.673 510.988C98.5023 511.083 98.3539 511.214 98.2378 511.372C98.1216 511.53 98.0403 511.71 97.9993 511.902C97.5352 513.94 99.9605 517.896 101.143 519.724C101.143 516.832 100.754 511.767 99.4216 510.958C99.3271 510.899 99.2183 510.868 99.1072 510.868Z" fill="#236D7D"/>
<path d="M100.29 521.927L99.4216 521.567C98.4934 521.192 90.3491 517.791 89.8401 514.869C89.7935 514.571 89.8256 514.266 89.9333 513.985C90.041 513.704 90.2205 513.455 90.4539 513.265C90.6995 513.036 90.996 512.869 91.3188 512.778C91.6416 512.687 91.9816 512.674 92.3104 512.741C95.604 513.31 99.6761 520.773 99.7959 521.087L100.29 521.927ZM91.8912 513.37C91.5261 513.37 91.176 513.516 90.918 513.775C90.7658 513.886 90.6474 514.037 90.576 514.212C90.5047 514.386 90.4831 514.577 90.5138 514.764C90.8432 516.682 95.9334 519.259 98.7479 520.548C97.5802 518.555 94.556 513.82 92.1906 513.4L91.8912 513.37Z" fill="#236D7D"/>
<path d="M126.774 518.286L111.653 515.903C110.713 515.755 109.752 515.963 108.958 516.487C105.452 518.856 101.507 520.497 97.3556 521.313C90.8881 522.227 85.1392 520.953 84.6003 522.811C84.2945 524.019 84.4028 525.294 84.9078 526.432C85.4127 527.571 86.285 528.507 87.3849 529.09C89.5107 530.199 115.56 534.245 126.549 535.923C127.124 536.01 127.712 535.964 128.267 535.79C128.822 535.616 129.33 535.317 129.753 534.917C130.175 534.517 130.502 534.026 130.706 533.481C130.911 532.936 130.99 532.352 130.936 531.772L129.992 521.732C129.911 520.883 129.551 520.084 128.969 519.46C128.387 518.837 127.615 518.424 126.774 518.286Z" fill="#222221"/>
<path d="M101.488 486.697L103.838 499.179L134.693 502.102L135.607 489.499L101.488 486.697Z" fill="#236D7D"/>
<path d="M252.036 485.887C252.455 486.636 239.041 493.245 239.041 493.245L230.149 483.46L225.493 478.32L230.223 473.824L236.361 468.025C236.361 468.025 236.99 468.744 238.023 469.883L243.473 476.027C247.515 480.612 251.827 485.513 252.036 485.887Z" fill="#B55B52"/>
<path opacity="0.2" d="M243.473 476.042L230.149 483.46L225.493 478.32L230.223 473.824L238.023 469.883L243.473 476.042Z" fill="#212121"/>
<path d="M234.685 499.224L233.906 498.865C233.622 498.745 227.05 495.733 226.421 493.08C226.363 492.815 226.371 492.54 226.444 492.279C226.518 492.018 226.653 491.778 226.84 491.582C227.04 491.325 227.305 491.125 227.608 491.004C227.91 490.883 228.239 490.845 228.562 490.892C231.226 491.327 233.996 497.726 234.31 498.46L234.685 499.224ZM228.322 491.522C228.141 491.526 227.964 491.572 227.803 491.655C227.642 491.738 227.502 491.856 227.394 492.001C227.275 492.124 227.189 492.275 227.144 492.44C227.1 492.606 227.098 492.779 227.139 492.945C227.499 494.624 231.211 496.782 233.352 497.861C232.319 495.643 230.193 491.866 228.502 491.537L228.322 491.522Z" fill="#236D7D"/>
<path d="M224.834 502.371C223.486 502.512 222.132 502.167 221.016 501.397C220.733 501.112 220.536 500.752 220.449 500.36C220.361 499.967 220.387 499.558 220.522 499.179C220.627 498.716 220.84 498.284 221.145 497.919C221.45 497.554 221.836 497.267 222.274 497.081C226.181 495.313 234.909 499.764 235.284 499.959L236.032 500.348L235.224 500.588C231.84 501.576 228.354 502.175 224.834 502.371ZM224.549 497.336C223.863 497.314 223.179 497.436 222.543 497.696C222.202 497.842 221.9 498.068 221.663 498.355C221.426 498.642 221.261 498.981 221.181 499.344C221.092 499.598 221.073 499.871 221.125 500.135C221.178 500.398 221.301 500.643 221.48 500.843C223.277 502.581 230.598 501.067 234.176 500.108C232.349 499.314 227.723 497.336 224.549 497.336Z" fill="#236D7D"/>
<path d="M251.168 485.348L237.844 492.841C237.011 493.301 236.384 494.062 236.092 494.968C234.815 499.004 232.737 502.74 229.984 505.953C225.493 510.703 220.193 513.28 220.926 515.064C221.431 516.201 222.304 517.135 223.404 517.714C224.504 518.293 225.768 518.484 226.99 518.255C229.34 517.806 252.276 504.769 261.932 499.284C262.438 498.994 262.872 498.592 263.199 498.109C263.527 497.626 263.74 497.074 263.822 496.496C263.905 495.918 263.854 495.329 263.674 494.773C263.495 494.217 263.191 493.71 262.785 493.29L255.824 485.992C255.227 485.387 254.447 484.996 253.605 484.88C252.763 484.763 251.907 484.928 251.168 485.348Z" fill="#222221"/>
<path d="M212.617 477.646L222.199 485.962L248.204 469.089L241.092 458.645L212.617 477.646Z" fill="#236D7D"/>
<path d="M153.287 98.6109C154.111 98.1463 171.253 97.3671 187.721 100.829C204.189 104.29 174.846 124.565 174.846 124.565L165.653 161.399L148.811 161.549L146.775 109.25L153.287 98.6109Z" fill="#F6F6F6"/>
<path d="M187.706 100.874L151.985 157.293L155.937 98.1313C155.937 98.1313 142.957 98.461 138.93 99.6299C134.903 100.799 131.445 110.209 128.555 123.097C125.666 135.984 121.279 166.883 121.279 166.883L100.754 339.213C100.754 339.213 170.923 354.198 203.979 342.554C203.979 342.554 191.553 187.773 193.604 178.212C195.655 168.651 202.287 133.676 202.287 133.676C202.287 133.676 211.48 116.218 207.482 111.079C203.485 105.939 187.706 100.874 187.706 100.874Z" fill="#236D7D"/>
<path d="M145.592 209.441L150.697 346.196" stroke="white" stroke-width="0.75" stroke-linecap="round" stroke-linejoin="round"/>
<path d="M141.255 102.565L17.418 144.811L48.6076 236.411L172.445 194.166L141.255 102.565Z" fill="#236D7D"/>
<path d="M141.251 102.567L48.595 236.415L31.1986 228.532L0.0139771 136.928L123.854 94.6851L141.251 102.567Z" fill="#236D7D"/>
<path opacity="0.7" d="M141.251 102.567L17.4103 144.825L48.595 236.415L31.1986 228.532L0.0139771 136.928L123.854 94.6851L141.251 102.567Z" fill="white"/>
<mask id="mask0_1685_8198" style="mask-type:luminance" maskUnits="userSpaceOnUse" x="0" y="94" width="142" height="143">
<path d="M141.251 102.567L17.4103 144.81L48.595 236.415L31.1986 228.517L0.0139771 136.928L123.854 94.6851L141.251 102.567Z" fill="white"/>
</mask>
<g mask="url(#mask0_1685_8198)">
<path d="M28.9829 148.077L-15.1367 132.957L172.63 57.4321L157.419 92.3775L129.064 120.894L30.3902 148.077" fill="#0F343D"/>
</g>
<path opacity="0.46" d="M141.255 102.565L17.418 144.811L48.6076 236.411L172.445 194.166L141.255 102.565Z" fill="white"/>
<path d="M114.761 196.591C129.69 184.365 131.891 162.339 119.676 147.395C107.46 132.451 85.4553 130.249 70.5257 142.475C55.5961 154.702 53.3956 176.728 65.6107 191.672C77.8258 206.615 99.831 208.818 114.761 196.591Z" fill="#FAFAFA"/>
<path d="M113.629 157.413L99.3766 162.073L94.8105 148.077L83.7918 151.689L88.3729 165.685L72.7133 170.825L76.2764 181.704L91.936 176.579L96.4723 190.44L107.476 186.829L102.94 172.967L117.192 168.292L113.629 157.413Z" fill="#236D7D"/>
<path d="M155.862 25.3936V3.59024C155.862 3.59024 179.711 -7.15412 202.512 14.7841L192.032 35.9432L155.862 25.3936Z" fill="#236D7D"/>
<path d="M178.768 6.78267L176.065 6.24854L174.433 14.5254L177.135 15.0595L178.768 6.78267Z" fill="white"/>
<path d="M172.765 8.49028L172.232 11.1953L180.501 12.8297L181.034 10.1246L172.765 8.49028Z" fill="white"/>
<path d="M190.296 65.6435C185.939 71.9223 181.942 71.0532 181.942 71.0532C180.632 73.4373 178.925 75.5808 176.897 77.3919C176.178 96.9775 181.942 102.267 181.942 102.267C175.953 111.513 168.558 111.258 161.072 108.561C153.587 105.864 153.197 99.9895 153.197 99.9895C159.964 96.6628 160.054 91.448 159.081 87.8815C158.694 86.5011 158.119 85.1801 157.374 83.9554C144.664 80.4638 140.996 68.2659 141.864 56.7573C142.402 49.777 144.113 42.9376 146.925 36.5274L154.41 25.1836L183.678 31.1777L185.25 46.7023L179.262 58.2109C189.817 50.4036 194.697 59.2898 190.296 65.6435Z" fill="#B55B52"/>
<path d="M161.746 63.8156C162.457 63.8117 163.168 63.8618 163.872 63.9655C164.008 63.9945 164.128 64.0738 164.209 64.1877C164.289 64.3015 164.324 64.4416 164.306 64.5799C164.277 64.7193 164.195 64.8422 164.078 64.9231C163.961 65.004 163.818 65.0367 163.677 65.0145C163.677 65.0145 156.192 63.6958 152.988 69.2403C152.918 69.3615 152.804 69.4501 152.669 69.4866C152.534 69.5232 152.39 69.5046 152.269 69.4351C152.148 69.3655 152.06 69.2507 152.023 69.1158C151.987 68.9809 152.005 68.837 152.075 68.7158C154.485 64.49 159.051 63.8156 161.746 63.8156Z" fill="#212121"/>
<path d="M153.811 58.6455C154.126 58.6455 155.398 49.085 155.398 49.085L148.601 57.2669C149.302 57.8882 150.138 58.3365 151.043 58.5759C151.947 58.8153 152.896 58.8392 153.811 58.6455Z" fill="#A02724"/>
<path d="M163.752 54.1201C163.7 54.4688 163.515 54.7838 163.236 54.999C162.957 55.2141 162.605 55.3127 162.255 55.2739C161.989 55.2416 161.74 55.131 161.537 54.9561C161.335 54.7812 161.189 54.5499 161.118 54.2918C161.047 54.0336 161.055 53.7602 161.14 53.5064C161.225 53.2526 161.383 53.0298 161.595 52.8665C161.807 52.7032 162.063 52.6067 162.33 52.5893C162.597 52.5719 162.863 52.6344 163.094 52.7688C163.325 52.9032 163.511 53.1035 163.629 53.3441C163.746 53.5848 163.789 53.8549 163.752 54.1201Z" fill="#212121"/>
<path d="M148.811 54.7793C148.779 55.0451 148.668 55.2952 148.493 55.4979C148.319 55.7005 148.088 55.8466 147.83 55.9174C147.572 55.9882 147.299 55.9805 147.045 55.8955C146.791 55.8104 146.569 55.6517 146.406 55.4395C146.243 55.2274 146.146 54.9715 146.129 54.7044C146.111 54.4373 146.174 54.171 146.308 53.9395C146.442 53.708 146.643 53.5217 146.883 53.4044C147.123 53.2871 147.393 53.2441 147.658 53.2808C147.832 53.303 148 53.3594 148.153 53.4468C148.305 53.5342 148.439 53.6509 148.546 53.7902C148.653 53.9294 148.731 54.0885 148.777 54.2583C148.822 54.428 148.834 54.6051 148.811 54.7793Z" fill="#212121"/>
<path d="M166.806 52.7714C166.671 52.7727 166.539 52.7353 166.425 52.6636C166.311 52.5918 166.22 52.4888 166.162 52.3668C164.381 48.5755 161.866 49.07 161.761 49.085C161.667 49.1182 161.568 49.1312 161.469 49.1232C161.37 49.1152 161.274 49.0864 161.187 49.0387C161.101 48.991 161.025 48.9254 160.965 48.8463C160.905 48.7672 160.863 48.6763 160.84 48.5796C160.818 48.4829 160.816 48.3825 160.835 48.2852C160.855 48.1878 160.894 48.0956 160.951 48.0145C161.009 47.9335 161.082 47.8655 161.168 47.815C161.253 47.7645 161.348 47.7326 161.447 47.7214C161.596 47.7214 165.144 46.8822 167.435 51.7674C167.513 51.9368 167.522 52.1299 167.461 52.3061C167.399 52.4822 167.272 52.6276 167.106 52.7114C167.011 52.7514 166.909 52.7718 166.806 52.7714Z" fill="#212121"/>
<path d="M144.2 50.2089C144.016 50.2095 143.84 50.1398 143.706 50.0141C143.576 49.8823 143.503 49.7047 143.503 49.5196C143.503 49.3345 143.576 49.1569 143.706 49.0251C143.871 48.8453 147.883 44.7244 152.958 46.7624C153.118 46.8402 153.243 46.976 153.307 47.1424C153.372 47.3089 153.37 47.4935 153.304 47.659C153.237 47.8244 153.11 47.9585 152.949 48.0341C152.788 48.1096 152.603 48.1211 152.434 48.0661C148.227 46.3877 144.754 49.9542 144.724 49.9991C144.655 50.067 144.573 50.1205 144.483 50.1565C144.393 50.1925 144.297 50.2103 144.2 50.2089Z" fill="#212121"/>
<path opacity="0.2" d="M163.902 83.1611C162.731 85.0913 161.087 86.6903 159.126 87.8065C158.738 86.4261 158.164 85.1052 157.419 83.8804C159.607 84.0916 161.814 83.8467 163.902 83.1611Z" fill="#212121"/>
<path d="M182.286 32.4963C182.286 32.4963 157.03 39.2547 146.97 35.6732C136.909 32.0918 140.427 19.714 141.79 18.5452C143.646 16.9567 147.688 23.5202 147.688 23.5202C147.688 23.5202 144.38 16.4922 146.97 14.9487C149.56 13.4053 149.964 23.9398 159.395 22.8309C168.827 21.722 194.967 14.6041 196.509 31.0578C197.434 40.9152 195.842 50.8463 191.883 59.9192C191.883 59.9192 190.49 50.9281 179.367 58.076C179.367 58.076 175.669 55.4386 179.367 51.8122C185.804 45.5334 183.559 37.2766 182.286 32.4963Z" fill="#212121"/>
<path d="M179.606 31.1779C179.606 31.1779 175.22 45.5337 183.289 44.8444C191.359 44.1551 186.403 29.1699 186.403 29.1699L179.606 31.1779Z" fill="#212121"/>
<path d="M158.392 23.6851C158.392 23.6851 153.123 19.8039 154.47 16.9867C155.817 14.1695 157.913 20.9728 168.408 19.729C178.903 18.4852 191.359 17.5412 193.664 24.5093C195.97 31.4774 172.705 26.1726 172.705 26.1726L158.362 29.2596L158.392 23.6851Z" fill="#212121"/>
<path d="M156.566 195.205L146.431 192.343C146.431 192.343 134.454 191.609 133.451 196.179C132.448 200.75 131.954 208.632 136.714 209.261C141.475 209.891 156.296 208.962 156.296 208.962L156.566 195.205Z" fill="#B55B52"/>
<path d="M191.149 125.584L207.482 110.989C207.482 110.989 227.708 155.944 228.846 173.222C229.984 190.5 216.645 198.262 205.342 201.169C194.038 204.077 156.581 211.824 156.581 211.824L154.56 190.965C154.56 190.965 194.458 184.146 209.818 177.088C209.758 177.133 195.94 136.898 191.149 125.584Z" fill="#236D7D"/>
<path opacity="0.1" d="M156.581 211.884L194.338 203.807L194.458 209.486L156.581 211.884Z" fill="#212121"/>
<path d="M161.102 108.486L165.399 119.845C172.225 114.815 178.507 109.084 184.143 102.747L177.915 92.3623C177.915 92.3623 172.211 103.721 161.102 108.486Z" fill="#FAFAFA"/>
<path d="M157.958 96.0635C158.082 100.385 159.156 104.627 161.102 108.486L156.416 118.976C154.044 116.571 152.236 113.668 151.122 110.478C150.009 107.288 149.618 103.889 149.979 100.529L157.958 96.0635Z" fill="#FAFAFA"/>
</g>
<defs>
<clipPath id="clip0_1685_8198">
<rect width="264" height="535" fill="white" transform="translate(0.181641 0.967773)"/>
</clipPath>
</defs>
</svg>
